# xmcd
#
# Track frame offsets: 
#        150
#        14575
#        25269
#        39825
#        53845
#        65630
#        77307
#        94260
#        110337
#        123235
#        133425
#        145210
#        153517
#        168912
#        183592
#        195002
#        210557
#        225625
#        238935
#        250897
#        264445
#        278572
#        290220
#        301095
#
# Disc length: 4189 seconds
#
# Revision: 2
# Processed by: cddbd v1.5.1PL2 Copyright (c) Steve Scherf et al.
# Submitted via: ExactAudioCopy v0.95b3
#
DISCID=4e105b18
DTITLE=Rory Block - Gone Woman Blues: The Country Blues Collection
DYEAR=1997
DGENRE=
TTITLE0=Big Road Blues
TTITLE1=Preaching Blues
TTITLE2=Joliet Bound
TTITLE3=Maggie Campbell
TTITLE4=Hellhound on My Trail
TTITLE5=Bye Bye Blues
TTITLE6=Gone Woman Blues
TTITLE7=Peavine Blues
TTITLE8=Rolling Log
TTITLE9=I Let My Daddy Do That
TTITLE10=Tallahatchie Blues
TTITLE11=Tain't Long fo Day
TTITLE12=Terraplane Blues
TTITLE13=Come On in My Kitchen
TTITLE14=Be Ready When He Comes
TTITLE15=Cypress Grove
TTITLE16=Railroadin' Some
TTITLE17=Hawkins Blues
TTITLE18=Cool Drink of Water
TTITLE19=Do Your Duty
TTITLE20=Rowdy Blues
TTITLE21=On the Wall
TTITLE22=Devil Got My Man
TTITLE23=Take My Heart Again
EXTD=CD: Rounder CD 11575 (1997), UPC 011661157521.
EXTT0=
EXTT1=
EXTT2=
EXTT3=
EXTT4=
EXTT5=
EXTT6=
EXTT7=
EXTT8=
EXTT9=
EXTT10=
EXTT11=
EXTT12=
EXTT13=
EXTT14=
EXTT15=
EXTT16=
EXTT17=
EXTT18=
EXTT19=
EXTT20=
EXTT21=
EXTT22=
EXTT23=
PLAYORDER=
